<svg xmlns="http://www.w3.org/2000/svg" width="41" height="41" viewBox="0 0 41 41" fill="none">
<path fill-rule="evenodd" clip-rule="evenodd" d="M20.6841 40.1379C31.7298 40.1379 40.6841 31.1836 40.6841 20.1379C40.6841 9.09225 31.7298 0.137939 20.6841 0.137939C9.63837 0.137939 0.684082 9.09225 0.684082 20.1379C0.684082 31.1836 9.63837 40.1379 20.6841 40.1379ZM26.9234 9.45478C27.2271 8.37599 26.1802 7.73807 25.2241 8.41924L11.8772 17.9275C10.8403 18.6662 11.0034 20.1379 12.1222 20.1379H15.6368V20.1107H22.4866L16.9053 22.08L14.4448 30.8211C14.1411 31.8999 15.1879 32.5378 16.1441 31.8566L29.491 22.3484C30.5279 21.6097 30.3647 20.1379 29.246 20.1379H23.9162L26.9234 9.45478Z" fill="#2C2925"/>
</svg>